<mxfile host="Electron" modified="2024-03-25T12:01:02.794Z" agent="Mozilla/5.0 (X11; Linux x86_64) AppleWebKit/537.36 (KHTML, like Gecko) draw.io/24.1.0 Chrome/120.0.6099.109 Electron/28.1.0 Safari/537.36" etag="h0AQPeQBE09H2QsobiwS" version="24.1.0" type="device">
  <diagram name="PÃ¡gina-1" id="E-DP9fMv0TR5NF7smadX">
    <mxGraphModel dx="941" dy="581" grid="1" gridSize="10" guides="1" tooltips="1" connect="1" arrows="1" fold="1" page="1" pageScale="1" pageWidth="800" pageHeight="400" math="1" shadow="0">
      <root>
        <mxCell id="0" />
        <mxCell id="1" parent="0" />
        <mxCell id="H2ho6_qdtDvlxnpRmL9c-1" value="" style="endArrow=classic;html=1;rounded=0;strokeWidth=3;" parent="1" edge="1">
          <mxGeometry width="50" height="50" relative="1" as="geometry">
            <mxPoint x="20" y="81" as="sourcePoint" />
            <mxPoint x="780" y="81" as="targetPoint" />
          </mxGeometry>
        </mxCell>
        <mxCell id="H2ho6_qdtDvlxnpRmL9c-31" value="&lt;font face=&quot;SFMono-Regular, Menlo, Monaco, Consolas, Liberation Mono, Courier New, monospace&quot;&gt;\(0\)&lt;/font&gt;" style="text;whiteSpace=wrap;html=1;align=center;verticalAlign=middle;fontColor=#000000;labelBackgroundColor=none;fontSize=20;" parent="1" vertex="1">
          <mxGeometry x="25" y="99" width="30" height="20" as="geometry" />
        </mxCell>
        <mxCell id="H2ho6_qdtDvlxnpRmL9c-33" value="" style="endArrow=none;html=1;rounded=0;strokeWidth=2;" parent="1" edge="1">
          <mxGeometry width="50" height="50" relative="1" as="geometry">
            <mxPoint x="40" y="92" as="sourcePoint" />
            <mxPoint x="40" y="82" as="targetPoint" />
          </mxGeometry>
        </mxCell>
        <mxCell id="qeR7PX2OtEkkMIq0IRz6-1" value="" style="endArrow=none;html=1;rounded=0;strokeWidth=2;" parent="1" edge="1">
          <mxGeometry width="50" height="50" relative="1" as="geometry">
            <mxPoint x="140" y="92" as="sourcePoint" />
            <mxPoint x="140" y="82" as="targetPoint" />
          </mxGeometry>
        </mxCell>
        <mxCell id="qeR7PX2OtEkkMIq0IRz6-2" value="" style="endArrow=none;html=1;rounded=0;strokeWidth=2;" parent="1" edge="1">
          <mxGeometry width="50" height="50" relative="1" as="geometry">
            <mxPoint x="240" y="92" as="sourcePoint" />
            <mxPoint x="240" y="82" as="targetPoint" />
          </mxGeometry>
        </mxCell>
        <mxCell id="qeR7PX2OtEkkMIq0IRz6-3" value="" style="endArrow=none;html=1;rounded=0;strokeWidth=2;" parent="1" edge="1">
          <mxGeometry width="50" height="50" relative="1" as="geometry">
            <mxPoint x="340" y="91" as="sourcePoint" />
            <mxPoint x="340" y="82" as="targetPoint" />
          </mxGeometry>
        </mxCell>
        <mxCell id="qeR7PX2OtEkkMIq0IRz6-4" value="" style="endArrow=none;html=1;rounded=0;strokeWidth=2;" parent="1" edge="1">
          <mxGeometry width="50" height="50" relative="1" as="geometry">
            <mxPoint x="440" y="91" as="sourcePoint" />
            <mxPoint x="440" y="82" as="targetPoint" />
          </mxGeometry>
        </mxCell>
        <mxCell id="qeR7PX2OtEkkMIq0IRz6-5" value="" style="endArrow=none;html=1;rounded=0;strokeWidth=2;" parent="1" edge="1">
          <mxGeometry width="50" height="50" relative="1" as="geometry">
            <mxPoint x="540" y="91" as="sourcePoint" />
            <mxPoint x="540" y="82" as="targetPoint" />
          </mxGeometry>
        </mxCell>
        <mxCell id="qeR7PX2OtEkkMIq0IRz6-41" value="" style="ellipse;whiteSpace=wrap;html=1;aspect=fixed;fillColor=#0000FF;" parent="1" vertex="1">
          <mxGeometry x="125" y="69" width="10" height="10" as="geometry" />
        </mxCell>
        <mxCell id="qeR7PX2OtEkkMIq0IRz6-42" value="" style="ellipse;whiteSpace=wrap;html=1;aspect=fixed;fillColor=#0000FF;" parent="1" vertex="1">
          <mxGeometry x="425" y="69" width="10" height="10" as="geometry" />
        </mxCell>
        <mxCell id="qeR7PX2OtEkkMIq0IRz6-43" value="" style="ellipse;whiteSpace=wrap;html=1;aspect=fixed;fillColor=#0000FF;" parent="1" vertex="1">
          <mxGeometry x="575" y="69" width="10" height="10" as="geometry" />
        </mxCell>
        <mxCell id="qeR7PX2OtEkkMIq0IRz6-44" value="" style="ellipse;whiteSpace=wrap;html=1;aspect=fixed;fillColor=#0000FF;" parent="1" vertex="1">
          <mxGeometry x="500" y="69" width="10" height="10" as="geometry" />
        </mxCell>
        <mxCell id="QyBpUTHthjD-6dGujXC1-2" value="" style="endArrow=none;html=1;rounded=0;strokeWidth=2;" parent="1" edge="1">
          <mxGeometry width="50" height="50" relative="1" as="geometry">
            <mxPoint x="640" y="91" as="sourcePoint" />
            <mxPoint x="640" y="82" as="targetPoint" />
          </mxGeometry>
        </mxCell>
        <mxCell id="QyBpUTHthjD-6dGujXC1-3" value="" style="endArrow=none;html=1;rounded=0;strokeWidth=2;" parent="1" edge="1">
          <mxGeometry width="50" height="50" relative="1" as="geometry">
            <mxPoint x="740" y="91" as="sourcePoint" />
            <mxPoint x="740" y="82" as="targetPoint" />
          </mxGeometry>
        </mxCell>
        <mxCell id="QyBpUTHthjD-6dGujXC1-4" value="&lt;font face=&quot;SFMono-Regular, Menlo, Monaco, Consolas, Liberation Mono, Courier New, monospace&quot;&gt;\(1\)&lt;/font&gt;" style="text;whiteSpace=wrap;html=1;align=center;verticalAlign=middle;fontColor=#000000;labelBackgroundColor=none;fontSize=20;" parent="1" vertex="1">
          <mxGeometry x="125" y="99" width="30" height="20" as="geometry" />
        </mxCell>
        <mxCell id="QyBpUTHthjD-6dGujXC1-5" value="&lt;font face=&quot;SFMono-Regular, Menlo, Monaco, Consolas, Liberation Mono, Courier New, monospace&quot;&gt;\(2\)&lt;/font&gt;" style="text;whiteSpace=wrap;html=1;align=center;verticalAlign=middle;fontColor=#000000;labelBackgroundColor=none;fontSize=20;" parent="1" vertex="1">
          <mxGeometry x="225" y="99" width="30" height="20" as="geometry" />
        </mxCell>
        <mxCell id="QyBpUTHthjD-6dGujXC1-6" value="&lt;font face=&quot;SFMono-Regular, Menlo, Monaco, Consolas, Liberation Mono, Courier New, monospace&quot;&gt;\(3\)&lt;/font&gt;" style="text;whiteSpace=wrap;html=1;align=center;verticalAlign=middle;fontColor=#000000;labelBackgroundColor=none;fontSize=20;" parent="1" vertex="1">
          <mxGeometry x="325" y="99" width="30" height="20" as="geometry" />
        </mxCell>
        <mxCell id="QyBpUTHthjD-6dGujXC1-7" value="&lt;font face=&quot;SFMono-Regular, Menlo, Monaco, Consolas, Liberation Mono, Courier New, monospace&quot;&gt;\(4\)&lt;/font&gt;" style="text;whiteSpace=wrap;html=1;align=center;verticalAlign=middle;fontColor=#000000;labelBackgroundColor=none;fontSize=20;" parent="1" vertex="1">
          <mxGeometry x="425" y="99" width="30" height="20" as="geometry" />
        </mxCell>
        <mxCell id="QyBpUTHthjD-6dGujXC1-8" value="&lt;font face=&quot;SFMono-Regular, Menlo, Monaco, Consolas, Liberation Mono, Courier New, monospace&quot;&gt;\(5\)&lt;/font&gt;" style="text;whiteSpace=wrap;html=1;align=center;verticalAlign=middle;fontColor=#000000;labelBackgroundColor=none;fontSize=20;" parent="1" vertex="1">
          <mxGeometry x="525" y="99" width="30" height="20" as="geometry" />
        </mxCell>
        <mxCell id="QyBpUTHthjD-6dGujXC1-9" value="&lt;font face=&quot;SFMono-Regular, Menlo, Monaco, Consolas, Liberation Mono, Courier New, monospace&quot;&gt;\(6\)&lt;/font&gt;" style="text;whiteSpace=wrap;html=1;align=center;verticalAlign=middle;fontColor=#000000;labelBackgroundColor=none;fontSize=20;" parent="1" vertex="1">
          <mxGeometry x="625" y="99" width="30" height="20" as="geometry" />
        </mxCell>
        <mxCell id="QyBpUTHthjD-6dGujXC1-10" value="&lt;font face=&quot;SFMono-Regular, Menlo, Monaco, Consolas, Liberation Mono, Courier New, monospace&quot;&gt;\(7\)&lt;/font&gt;" style="text;whiteSpace=wrap;html=1;align=center;verticalAlign=middle;fontColor=#000000;labelBackgroundColor=none;fontSize=20;" parent="1" vertex="1">
          <mxGeometry x="725" y="99" width="30" height="20" as="geometry" />
        </mxCell>
        <mxCell id="QyBpUTHthjD-6dGujXC1-18" value="" style="endArrow=none;dashed=1;html=1;rounded=0;dashPattern=1 1;strokeWidth=2;" parent="1" edge="1">
          <mxGeometry width="50" height="50" relative="1" as="geometry">
            <mxPoint x="50" y="91" as="sourcePoint" />
            <mxPoint x="50" y="81" as="targetPoint" />
          </mxGeometry>
        </mxCell>
        <mxCell id="QyBpUTHthjD-6dGujXC1-19" value="" style="endArrow=none;dashed=1;html=1;rounded=0;dashPattern=1 1;strokeWidth=2;" parent="1" edge="1">
          <mxGeometry width="50" height="50" relative="1" as="geometry">
            <mxPoint x="60" y="91" as="sourcePoint" />
            <mxPoint x="60" y="81" as="targetPoint" />
          </mxGeometry>
        </mxCell>
        <mxCell id="QyBpUTHthjD-6dGujXC1-20" value="" style="endArrow=none;dashed=1;html=1;rounded=0;dashPattern=1 1;strokeWidth=2;" parent="1" edge="1">
          <mxGeometry width="50" height="50" relative="1" as="geometry">
            <mxPoint x="70" y="91" as="sourcePoint" />
            <mxPoint x="70" y="81" as="targetPoint" />
          </mxGeometry>
        </mxCell>
        <mxCell id="QyBpUTHthjD-6dGujXC1-21" value="" style="endArrow=none;dashed=1;html=1;rounded=0;dashPattern=1 1;strokeWidth=2;" parent="1" edge="1">
          <mxGeometry width="50" height="50" relative="1" as="geometry">
            <mxPoint x="80" y="91" as="sourcePoint" />
            <mxPoint x="80" y="81" as="targetPoint" />
          </mxGeometry>
        </mxCell>
        <mxCell id="QyBpUTHthjD-6dGujXC1-22" value="" style="endArrow=none;dashed=1;html=1;rounded=0;dashPattern=1 1;strokeWidth=2;" parent="1" edge="1">
          <mxGeometry width="50" height="50" relative="1" as="geometry">
            <mxPoint x="90" y="91" as="sourcePoint" />
            <mxPoint x="90" y="81" as="targetPoint" />
          </mxGeometry>
        </mxCell>
        <mxCell id="QyBpUTHthjD-6dGujXC1-23" value="" style="endArrow=none;dashed=1;html=1;rounded=0;dashPattern=1 1;strokeWidth=2;" parent="1" edge="1">
          <mxGeometry width="50" height="50" relative="1" as="geometry">
            <mxPoint x="100" y="91" as="sourcePoint" />
            <mxPoint x="100" y="81" as="targetPoint" />
          </mxGeometry>
        </mxCell>
        <mxCell id="QyBpUTHthjD-6dGujXC1-24" value="" style="endArrow=none;dashed=1;html=1;rounded=0;dashPattern=1 1;strokeWidth=2;" parent="1" edge="1">
          <mxGeometry width="50" height="50" relative="1" as="geometry">
            <mxPoint x="110" y="91" as="sourcePoint" />
            <mxPoint x="110" y="81" as="targetPoint" />
          </mxGeometry>
        </mxCell>
        <mxCell id="QyBpUTHthjD-6dGujXC1-25" value="" style="endArrow=none;dashed=1;html=1;rounded=0;dashPattern=1 1;strokeWidth=2;" parent="1" edge="1">
          <mxGeometry width="50" height="50" relative="1" as="geometry">
            <mxPoint x="120" y="91" as="sourcePoint" />
            <mxPoint x="120" y="81" as="targetPoint" />
          </mxGeometry>
        </mxCell>
        <mxCell id="QyBpUTHthjD-6dGujXC1-26" value="" style="endArrow=none;dashed=1;html=1;rounded=0;dashPattern=1 1;strokeWidth=2;" parent="1" edge="1">
          <mxGeometry width="50" height="50" relative="1" as="geometry">
            <mxPoint x="130" y="91" as="sourcePoint" />
            <mxPoint x="130" y="81" as="targetPoint" />
          </mxGeometry>
        </mxCell>
        <mxCell id="QyBpUTHthjD-6dGujXC1-27" value="" style="endArrow=none;dashed=1;html=1;rounded=0;dashPattern=1 1;strokeWidth=2;" parent="1" edge="1">
          <mxGeometry width="50" height="50" relative="1" as="geometry">
            <mxPoint x="150" y="91" as="sourcePoint" />
            <mxPoint x="150" y="81" as="targetPoint" />
          </mxGeometry>
        </mxCell>
        <mxCell id="QyBpUTHthjD-6dGujXC1-28" value="" style="endArrow=none;dashed=1;html=1;rounded=0;dashPattern=1 1;strokeWidth=2;" parent="1" edge="1">
          <mxGeometry width="50" height="50" relative="1" as="geometry">
            <mxPoint x="160" y="91" as="sourcePoint" />
            <mxPoint x="160" y="81" as="targetPoint" />
          </mxGeometry>
        </mxCell>
        <mxCell id="QyBpUTHthjD-6dGujXC1-29" value="" style="endArrow=none;dashed=1;html=1;rounded=0;dashPattern=1 1;strokeWidth=2;" parent="1" edge="1">
          <mxGeometry width="50" height="50" relative="1" as="geometry">
            <mxPoint x="170" y="91" as="sourcePoint" />
            <mxPoint x="170" y="81" as="targetPoint" />
          </mxGeometry>
        </mxCell>
        <mxCell id="QyBpUTHthjD-6dGujXC1-30" value="" style="endArrow=none;dashed=1;html=1;rounded=0;dashPattern=1 1;strokeWidth=2;" parent="1" edge="1">
          <mxGeometry width="50" height="50" relative="1" as="geometry">
            <mxPoint x="180" y="91" as="sourcePoint" />
            <mxPoint x="180" y="81" as="targetPoint" />
          </mxGeometry>
        </mxCell>
        <mxCell id="QyBpUTHthjD-6dGujXC1-31" value="" style="endArrow=none;dashed=1;html=1;rounded=0;dashPattern=1 1;strokeWidth=2;" parent="1" edge="1">
          <mxGeometry width="50" height="50" relative="1" as="geometry">
            <mxPoint x="190" y="91" as="sourcePoint" />
            <mxPoint x="190" y="81" as="targetPoint" />
          </mxGeometry>
        </mxCell>
        <mxCell id="QyBpUTHthjD-6dGujXC1-32" value="" style="endArrow=none;dashed=1;html=1;rounded=0;dashPattern=1 1;strokeWidth=2;" parent="1" edge="1">
          <mxGeometry width="50" height="50" relative="1" as="geometry">
            <mxPoint x="200" y="91" as="sourcePoint" />
            <mxPoint x="200" y="81" as="targetPoint" />
          </mxGeometry>
        </mxCell>
        <mxCell id="QyBpUTHthjD-6dGujXC1-33" value="" style="endArrow=none;dashed=1;html=1;rounded=0;dashPattern=1 1;strokeWidth=2;" parent="1" edge="1">
          <mxGeometry width="50" height="50" relative="1" as="geometry">
            <mxPoint x="210" y="91" as="sourcePoint" />
            <mxPoint x="210" y="81" as="targetPoint" />
          </mxGeometry>
        </mxCell>
        <mxCell id="QyBpUTHthjD-6dGujXC1-34" value="" style="endArrow=none;dashed=1;html=1;rounded=0;dashPattern=1 1;strokeWidth=2;" parent="1" edge="1">
          <mxGeometry width="50" height="50" relative="1" as="geometry">
            <mxPoint x="220" y="91" as="sourcePoint" />
            <mxPoint x="220" y="81" as="targetPoint" />
          </mxGeometry>
        </mxCell>
        <mxCell id="QyBpUTHthjD-6dGujXC1-35" value="" style="endArrow=none;dashed=1;html=1;rounded=0;dashPattern=1 1;strokeWidth=2;" parent="1" edge="1">
          <mxGeometry width="50" height="50" relative="1" as="geometry">
            <mxPoint x="230" y="91" as="sourcePoint" />
            <mxPoint x="230" y="81" as="targetPoint" />
          </mxGeometry>
        </mxCell>
        <mxCell id="QyBpUTHthjD-6dGujXC1-36" value="" style="endArrow=none;dashed=1;html=1;rounded=0;dashPattern=1 1;strokeWidth=2;" parent="1" edge="1">
          <mxGeometry width="50" height="50" relative="1" as="geometry">
            <mxPoint x="250" y="91" as="sourcePoint" />
            <mxPoint x="250" y="81" as="targetPoint" />
          </mxGeometry>
        </mxCell>
        <mxCell id="QyBpUTHthjD-6dGujXC1-37" value="" style="endArrow=none;dashed=1;html=1;rounded=0;dashPattern=1 1;strokeWidth=2;" parent="1" edge="1">
          <mxGeometry width="50" height="50" relative="1" as="geometry">
            <mxPoint x="260" y="91" as="sourcePoint" />
            <mxPoint x="260" y="81" as="targetPoint" />
          </mxGeometry>
        </mxCell>
        <mxCell id="QyBpUTHthjD-6dGujXC1-38" value="" style="endArrow=none;dashed=1;html=1;rounded=0;dashPattern=1 1;strokeWidth=2;" parent="1" edge="1">
          <mxGeometry width="50" height="50" relative="1" as="geometry">
            <mxPoint x="270" y="91" as="sourcePoint" />
            <mxPoint x="270" y="81" as="targetPoint" />
          </mxGeometry>
        </mxCell>
        <mxCell id="QyBpUTHthjD-6dGujXC1-39" value="" style="endArrow=none;dashed=1;html=1;rounded=0;dashPattern=1 1;strokeWidth=2;" parent="1" edge="1">
          <mxGeometry width="50" height="50" relative="1" as="geometry">
            <mxPoint x="280" y="91" as="sourcePoint" />
            <mxPoint x="280" y="81" as="targetPoint" />
          </mxGeometry>
        </mxCell>
        <mxCell id="QyBpUTHthjD-6dGujXC1-40" value="" style="endArrow=none;dashed=1;html=1;rounded=0;dashPattern=1 1;strokeWidth=2;" parent="1" edge="1">
          <mxGeometry width="50" height="50" relative="1" as="geometry">
            <mxPoint x="290" y="91" as="sourcePoint" />
            <mxPoint x="290" y="81" as="targetPoint" />
          </mxGeometry>
        </mxCell>
        <mxCell id="QyBpUTHthjD-6dGujXC1-41" value="" style="endArrow=none;dashed=1;html=1;rounded=0;dashPattern=1 1;strokeWidth=2;" parent="1" edge="1">
          <mxGeometry width="50" height="50" relative="1" as="geometry">
            <mxPoint x="300" y="91" as="sourcePoint" />
            <mxPoint x="300" y="81" as="targetPoint" />
          </mxGeometry>
        </mxCell>
        <mxCell id="QyBpUTHthjD-6dGujXC1-42" value="" style="endArrow=none;dashed=1;html=1;rounded=0;dashPattern=1 1;strokeWidth=2;" parent="1" edge="1">
          <mxGeometry width="50" height="50" relative="1" as="geometry">
            <mxPoint x="310" y="91" as="sourcePoint" />
            <mxPoint x="310" y="81" as="targetPoint" />
          </mxGeometry>
        </mxCell>
        <mxCell id="QyBpUTHthjD-6dGujXC1-43" value="" style="endArrow=none;dashed=1;html=1;rounded=0;dashPattern=1 1;strokeWidth=2;" parent="1" edge="1">
          <mxGeometry width="50" height="50" relative="1" as="geometry">
            <mxPoint x="320" y="91" as="sourcePoint" />
            <mxPoint x="320" y="81" as="targetPoint" />
          </mxGeometry>
        </mxCell>
        <mxCell id="QyBpUTHthjD-6dGujXC1-44" value="" style="endArrow=none;dashed=1;html=1;rounded=0;dashPattern=1 1;strokeWidth=2;" parent="1" edge="1">
          <mxGeometry width="50" height="50" relative="1" as="geometry">
            <mxPoint x="330" y="91" as="sourcePoint" />
            <mxPoint x="330" y="81" as="targetPoint" />
          </mxGeometry>
        </mxCell>
        <mxCell id="QyBpUTHthjD-6dGujXC1-45" value="" style="endArrow=none;dashed=1;html=1;rounded=0;dashPattern=1 1;strokeWidth=2;" parent="1" edge="1">
          <mxGeometry width="50" height="50" relative="1" as="geometry">
            <mxPoint x="350" y="91" as="sourcePoint" />
            <mxPoint x="350" y="81" as="targetPoint" />
          </mxGeometry>
        </mxCell>
        <mxCell id="QyBpUTHthjD-6dGujXC1-46" value="" style="endArrow=none;dashed=1;html=1;rounded=0;dashPattern=1 1;strokeWidth=2;" parent="1" edge="1">
          <mxGeometry width="50" height="50" relative="1" as="geometry">
            <mxPoint x="360" y="91" as="sourcePoint" />
            <mxPoint x="360" y="81" as="targetPoint" />
          </mxGeometry>
        </mxCell>
        <mxCell id="QyBpUTHthjD-6dGujXC1-47" value="" style="endArrow=none;dashed=1;html=1;rounded=0;dashPattern=1 1;strokeWidth=2;" parent="1" edge="1">
          <mxGeometry width="50" height="50" relative="1" as="geometry">
            <mxPoint x="370" y="91" as="sourcePoint" />
            <mxPoint x="370" y="81" as="targetPoint" />
          </mxGeometry>
        </mxCell>
        <mxCell id="QyBpUTHthjD-6dGujXC1-48" value="" style="endArrow=none;dashed=1;html=1;rounded=0;dashPattern=1 1;strokeWidth=2;" parent="1" edge="1">
          <mxGeometry width="50" height="50" relative="1" as="geometry">
            <mxPoint x="380" y="91" as="sourcePoint" />
            <mxPoint x="380" y="81" as="targetPoint" />
          </mxGeometry>
        </mxCell>
        <mxCell id="QyBpUTHthjD-6dGujXC1-49" value="" style="endArrow=none;dashed=1;html=1;rounded=0;dashPattern=1 1;strokeWidth=2;" parent="1" edge="1">
          <mxGeometry width="50" height="50" relative="1" as="geometry">
            <mxPoint x="390" y="91" as="sourcePoint" />
            <mxPoint x="390" y="81" as="targetPoint" />
          </mxGeometry>
        </mxCell>
        <mxCell id="QyBpUTHthjD-6dGujXC1-50" value="" style="endArrow=none;dashed=1;html=1;rounded=0;dashPattern=1 1;strokeWidth=2;" parent="1" edge="1">
          <mxGeometry width="50" height="50" relative="1" as="geometry">
            <mxPoint x="400" y="91" as="sourcePoint" />
            <mxPoint x="400" y="81" as="targetPoint" />
          </mxGeometry>
        </mxCell>
        <mxCell id="QyBpUTHthjD-6dGujXC1-51" value="" style="endArrow=none;dashed=1;html=1;rounded=0;dashPattern=1 1;strokeWidth=2;" parent="1" edge="1">
          <mxGeometry width="50" height="50" relative="1" as="geometry">
            <mxPoint x="410" y="91" as="sourcePoint" />
            <mxPoint x="410" y="81" as="targetPoint" />
          </mxGeometry>
        </mxCell>
        <mxCell id="QyBpUTHthjD-6dGujXC1-52" value="" style="endArrow=none;dashed=1;html=1;rounded=0;dashPattern=1 1;strokeWidth=2;" parent="1" edge="1">
          <mxGeometry width="50" height="50" relative="1" as="geometry">
            <mxPoint x="420" y="91" as="sourcePoint" />
            <mxPoint x="420" y="81" as="targetPoint" />
          </mxGeometry>
        </mxCell>
        <mxCell id="QyBpUTHthjD-6dGujXC1-53" value="" style="endArrow=none;dashed=1;html=1;rounded=0;dashPattern=1 1;strokeWidth=2;" parent="1" edge="1">
          <mxGeometry width="50" height="50" relative="1" as="geometry">
            <mxPoint x="430" y="91" as="sourcePoint" />
            <mxPoint x="430" y="81" as="targetPoint" />
          </mxGeometry>
        </mxCell>
        <mxCell id="QyBpUTHthjD-6dGujXC1-54" value="" style="endArrow=none;dashed=1;html=1;rounded=0;dashPattern=1 1;strokeWidth=2;" parent="1" edge="1">
          <mxGeometry width="50" height="50" relative="1" as="geometry">
            <mxPoint x="450" y="91" as="sourcePoint" />
            <mxPoint x="450" y="81" as="targetPoint" />
          </mxGeometry>
        </mxCell>
        <mxCell id="QyBpUTHthjD-6dGujXC1-55" value="" style="endArrow=none;dashed=1;html=1;rounded=0;dashPattern=1 1;strokeWidth=2;" parent="1" edge="1">
          <mxGeometry width="50" height="50" relative="1" as="geometry">
            <mxPoint x="460" y="91" as="sourcePoint" />
            <mxPoint x="460" y="81" as="targetPoint" />
          </mxGeometry>
        </mxCell>
        <mxCell id="QyBpUTHthjD-6dGujXC1-56" value="" style="endArrow=none;dashed=1;html=1;rounded=0;dashPattern=1 1;strokeWidth=2;" parent="1" edge="1">
          <mxGeometry width="50" height="50" relative="1" as="geometry">
            <mxPoint x="470" y="91" as="sourcePoint" />
            <mxPoint x="470" y="81" as="targetPoint" />
          </mxGeometry>
        </mxCell>
        <mxCell id="QyBpUTHthjD-6dGujXC1-57" value="" style="endArrow=none;dashed=1;html=1;rounded=0;dashPattern=1 1;strokeWidth=2;" parent="1" edge="1">
          <mxGeometry width="50" height="50" relative="1" as="geometry">
            <mxPoint x="480" y="91" as="sourcePoint" />
            <mxPoint x="480" y="81" as="targetPoint" />
          </mxGeometry>
        </mxCell>
        <mxCell id="QyBpUTHthjD-6dGujXC1-58" value="" style="endArrow=none;dashed=1;html=1;rounded=0;dashPattern=1 1;strokeWidth=2;" parent="1" edge="1">
          <mxGeometry width="50" height="50" relative="1" as="geometry">
            <mxPoint x="490" y="91" as="sourcePoint" />
            <mxPoint x="490" y="81" as="targetPoint" />
          </mxGeometry>
        </mxCell>
        <mxCell id="QyBpUTHthjD-6dGujXC1-59" value="" style="endArrow=none;dashed=1;html=1;rounded=0;dashPattern=1 1;strokeWidth=2;" parent="1" edge="1">
          <mxGeometry width="50" height="50" relative="1" as="geometry">
            <mxPoint x="500" y="91" as="sourcePoint" />
            <mxPoint x="500" y="81" as="targetPoint" />
          </mxGeometry>
        </mxCell>
        <mxCell id="QyBpUTHthjD-6dGujXC1-60" value="" style="endArrow=none;dashed=1;html=1;rounded=0;dashPattern=1 1;strokeWidth=2;" parent="1" edge="1">
          <mxGeometry width="50" height="50" relative="1" as="geometry">
            <mxPoint x="510" y="91" as="sourcePoint" />
            <mxPoint x="510" y="81" as="targetPoint" />
          </mxGeometry>
        </mxCell>
        <mxCell id="QyBpUTHthjD-6dGujXC1-61" value="" style="endArrow=none;dashed=1;html=1;rounded=0;dashPattern=1 1;strokeWidth=2;" parent="1" edge="1">
          <mxGeometry width="50" height="50" relative="1" as="geometry">
            <mxPoint x="520" y="91" as="sourcePoint" />
            <mxPoint x="520" y="81" as="targetPoint" />
          </mxGeometry>
        </mxCell>
        <mxCell id="QyBpUTHthjD-6dGujXC1-62" value="" style="endArrow=none;dashed=1;html=1;rounded=0;dashPattern=1 1;strokeWidth=2;" parent="1" edge="1">
          <mxGeometry width="50" height="50" relative="1" as="geometry">
            <mxPoint x="530" y="91" as="sourcePoint" />
            <mxPoint x="530" y="81" as="targetPoint" />
          </mxGeometry>
        </mxCell>
        <mxCell id="QyBpUTHthjD-6dGujXC1-63" value="" style="endArrow=none;dashed=1;html=1;rounded=0;dashPattern=1 1;strokeWidth=2;" parent="1" edge="1">
          <mxGeometry width="50" height="50" relative="1" as="geometry">
            <mxPoint x="650" y="91" as="sourcePoint" />
            <mxPoint x="650" y="81" as="targetPoint" />
          </mxGeometry>
        </mxCell>
        <mxCell id="QyBpUTHthjD-6dGujXC1-64" value="" style="endArrow=none;dashed=1;html=1;rounded=0;dashPattern=1 1;strokeWidth=2;" parent="1" edge="1">
          <mxGeometry width="50" height="50" relative="1" as="geometry">
            <mxPoint x="660" y="91" as="sourcePoint" />
            <mxPoint x="660" y="81" as="targetPoint" />
          </mxGeometry>
        </mxCell>
        <mxCell id="QyBpUTHthjD-6dGujXC1-65" value="" style="endArrow=none;dashed=1;html=1;rounded=0;dashPattern=1 1;strokeWidth=2;" parent="1" edge="1">
          <mxGeometry width="50" height="50" relative="1" as="geometry">
            <mxPoint x="670" y="91" as="sourcePoint" />
            <mxPoint x="670" y="81" as="targetPoint" />
          </mxGeometry>
        </mxCell>
        <mxCell id="QyBpUTHthjD-6dGujXC1-66" value="" style="endArrow=none;dashed=1;html=1;rounded=0;dashPattern=1 1;strokeWidth=2;" parent="1" edge="1">
          <mxGeometry width="50" height="50" relative="1" as="geometry">
            <mxPoint x="680" y="91" as="sourcePoint" />
            <mxPoint x="680" y="81" as="targetPoint" />
          </mxGeometry>
        </mxCell>
        <mxCell id="QyBpUTHthjD-6dGujXC1-67" value="" style="endArrow=none;dashed=1;html=1;rounded=0;dashPattern=1 1;strokeWidth=2;" parent="1" edge="1">
          <mxGeometry width="50" height="50" relative="1" as="geometry">
            <mxPoint x="690" y="91" as="sourcePoint" />
            <mxPoint x="690" y="81" as="targetPoint" />
          </mxGeometry>
        </mxCell>
        <mxCell id="QyBpUTHthjD-6dGujXC1-68" value="" style="endArrow=none;dashed=1;html=1;rounded=0;dashPattern=1 1;strokeWidth=2;" parent="1" edge="1">
          <mxGeometry width="50" height="50" relative="1" as="geometry">
            <mxPoint x="700" y="91" as="sourcePoint" />
            <mxPoint x="700" y="81" as="targetPoint" />
          </mxGeometry>
        </mxCell>
        <mxCell id="QyBpUTHthjD-6dGujXC1-69" value="" style="endArrow=none;dashed=1;html=1;rounded=0;dashPattern=1 1;strokeWidth=2;" parent="1" edge="1">
          <mxGeometry width="50" height="50" relative="1" as="geometry">
            <mxPoint x="710" y="91" as="sourcePoint" />
            <mxPoint x="710" y="81" as="targetPoint" />
          </mxGeometry>
        </mxCell>
        <mxCell id="QyBpUTHthjD-6dGujXC1-70" value="" style="endArrow=none;dashed=1;html=1;rounded=0;dashPattern=1 1;strokeWidth=2;" parent="1" edge="1">
          <mxGeometry width="50" height="50" relative="1" as="geometry">
            <mxPoint x="720" y="91" as="sourcePoint" />
            <mxPoint x="720" y="81" as="targetPoint" />
          </mxGeometry>
        </mxCell>
        <mxCell id="QyBpUTHthjD-6dGujXC1-71" value="" style="endArrow=none;dashed=1;html=1;rounded=0;dashPattern=1 1;strokeWidth=2;" parent="1" edge="1">
          <mxGeometry width="50" height="50" relative="1" as="geometry">
            <mxPoint x="730" y="91" as="sourcePoint" />
            <mxPoint x="730" y="81" as="targetPoint" />
          </mxGeometry>
        </mxCell>
        <mxCell id="QyBpUTHthjD-6dGujXC1-72" value="" style="endArrow=none;dashed=1;html=1;rounded=0;dashPattern=1 1;strokeWidth=2;" parent="1" edge="1">
          <mxGeometry width="50" height="50" relative="1" as="geometry">
            <mxPoint x="550" y="91" as="sourcePoint" />
            <mxPoint x="550" y="81" as="targetPoint" />
          </mxGeometry>
        </mxCell>
        <mxCell id="QyBpUTHthjD-6dGujXC1-73" value="" style="endArrow=none;dashed=1;html=1;rounded=0;dashPattern=1 1;strokeWidth=2;" parent="1" edge="1">
          <mxGeometry width="50" height="50" relative="1" as="geometry">
            <mxPoint x="560" y="91" as="sourcePoint" />
            <mxPoint x="560" y="81" as="targetPoint" />
          </mxGeometry>
        </mxCell>
        <mxCell id="QyBpUTHthjD-6dGujXC1-74" value="" style="endArrow=none;dashed=1;html=1;rounded=0;dashPattern=1 1;strokeWidth=2;" parent="1" edge="1">
          <mxGeometry width="50" height="50" relative="1" as="geometry">
            <mxPoint x="570" y="91" as="sourcePoint" />
            <mxPoint x="570" y="81" as="targetPoint" />
          </mxGeometry>
        </mxCell>
        <mxCell id="QyBpUTHthjD-6dGujXC1-75" value="" style="endArrow=none;dashed=1;html=1;rounded=0;dashPattern=1 1;strokeWidth=2;" parent="1" edge="1">
          <mxGeometry width="50" height="50" relative="1" as="geometry">
            <mxPoint x="580" y="91" as="sourcePoint" />
            <mxPoint x="580" y="81" as="targetPoint" />
          </mxGeometry>
        </mxCell>
        <mxCell id="QyBpUTHthjD-6dGujXC1-76" value="" style="endArrow=none;dashed=1;html=1;rounded=0;dashPattern=1 1;strokeWidth=2;" parent="1" edge="1">
          <mxGeometry width="50" height="50" relative="1" as="geometry">
            <mxPoint x="590" y="91" as="sourcePoint" />
            <mxPoint x="590" y="81" as="targetPoint" />
          </mxGeometry>
        </mxCell>
        <mxCell id="QyBpUTHthjD-6dGujXC1-77" value="" style="endArrow=none;dashed=1;html=1;rounded=0;dashPattern=1 1;strokeWidth=2;" parent="1" edge="1">
          <mxGeometry width="50" height="50" relative="1" as="geometry">
            <mxPoint x="600" y="91" as="sourcePoint" />
            <mxPoint x="600" y="81" as="targetPoint" />
          </mxGeometry>
        </mxCell>
        <mxCell id="QyBpUTHthjD-6dGujXC1-78" value="" style="endArrow=none;dashed=1;html=1;rounded=0;dashPattern=1 1;strokeWidth=2;" parent="1" edge="1">
          <mxGeometry width="50" height="50" relative="1" as="geometry">
            <mxPoint x="610" y="91" as="sourcePoint" />
            <mxPoint x="610" y="81" as="targetPoint" />
          </mxGeometry>
        </mxCell>
        <mxCell id="QyBpUTHthjD-6dGujXC1-79" value="" style="endArrow=none;dashed=1;html=1;rounded=0;dashPattern=1 1;strokeWidth=2;" parent="1" edge="1">
          <mxGeometry width="50" height="50" relative="1" as="geometry">
            <mxPoint x="620" y="91" as="sourcePoint" />
            <mxPoint x="620" y="81" as="targetPoint" />
          </mxGeometry>
        </mxCell>
        <mxCell id="QyBpUTHthjD-6dGujXC1-80" value="" style="endArrow=none;dashed=1;html=1;rounded=0;dashPattern=1 1;strokeWidth=2;" parent="1" edge="1">
          <mxGeometry width="50" height="50" relative="1" as="geometry">
            <mxPoint x="630" y="91" as="sourcePoint" />
            <mxPoint x="630" y="81" as="targetPoint" />
          </mxGeometry>
        </mxCell>
        <mxCell id="GvZRkOdXiB6BV7RRrDBN-1" value="" style="ellipse;whiteSpace=wrap;html=1;aspect=fixed;fillColor=#0000FF;" vertex="1" parent="1">
          <mxGeometry x="275" y="69" width="10" height="10" as="geometry" />
        </mxCell>
        <mxCell id="GvZRkOdXiB6BV7RRrDBN-2" value="" style="ellipse;whiteSpace=wrap;html=1;aspect=fixed;fillColor=#0000FF;" vertex="1" parent="1">
          <mxGeometry x="425" y="59" width="10" height="10" as="geometry" />
        </mxCell>
        <mxCell id="GvZRkOdXiB6BV7RRrDBN-3" value="" style="ellipse;whiteSpace=wrap;html=1;aspect=fixed;fillColor=#0000FF;" vertex="1" parent="1">
          <mxGeometry x="275" y="59" width="10" height="10" as="geometry" />
        </mxCell>
        <mxCell id="GvZRkOdXiB6BV7RRrDBN-4" value="" style="ellipse;whiteSpace=wrap;html=1;aspect=fixed;fillColor=#0000FF;" vertex="1" parent="1">
          <mxGeometry x="500" y="59" width="10" height="10" as="geometry" />
        </mxCell>
        <mxCell id="GvZRkOdXiB6BV7RRrDBN-5" value="" style="ellipse;whiteSpace=wrap;html=1;aspect=fixed;fillColor=#0000FF;" vertex="1" parent="1">
          <mxGeometry x="425" y="49" width="10" height="10" as="geometry" />
        </mxCell>
        <mxCell id="GvZRkOdXiB6BV7RRrDBN-6" value="" style="ellipse;whiteSpace=wrap;html=1;aspect=fixed;fillColor=#0000FF;" vertex="1" parent="1">
          <mxGeometry x="425" y="39" width="10" height="10" as="geometry" />
        </mxCell>
        <mxCell id="GvZRkOdXiB6BV7RRrDBN-7" value="" style="endArrow=classic;html=1;rounded=0;strokeWidth=3;" edge="1" parent="1">
          <mxGeometry width="50" height="50" relative="1" as="geometry">
            <mxPoint x="20" y="281" as="sourcePoint" />
            <mxPoint x="780" y="281" as="targetPoint" />
          </mxGeometry>
        </mxCell>
        <mxCell id="GvZRkOdXiB6BV7RRrDBN-8" value="&lt;font face=&quot;SFMono-Regular, Menlo, Monaco, Consolas, Liberation Mono, Courier New, monospace&quot;&gt;\(0\)&lt;/font&gt;" style="text;whiteSpace=wrap;html=1;align=center;verticalAlign=middle;fontColor=#000000;labelBackgroundColor=none;fontSize=20;" vertex="1" parent="1">
          <mxGeometry x="25" y="299" width="30" height="20" as="geometry" />
        </mxCell>
        <mxCell id="GvZRkOdXiB6BV7RRrDBN-9" value="" style="endArrow=none;html=1;rounded=0;strokeWidth=2;" edge="1" parent="1">
          <mxGeometry width="50" height="50" relative="1" as="geometry">
            <mxPoint x="40" y="292" as="sourcePoint" />
            <mxPoint x="40" y="282" as="targetPoint" />
          </mxGeometry>
        </mxCell>
        <mxCell id="GvZRkOdXiB6BV7RRrDBN-10" value="" style="endArrow=none;html=1;rounded=0;strokeWidth=2;" edge="1" parent="1">
          <mxGeometry width="50" height="50" relative="1" as="geometry">
            <mxPoint x="140" y="292" as="sourcePoint" />
            <mxPoint x="140" y="282" as="targetPoint" />
          </mxGeometry>
        </mxCell>
        <mxCell id="GvZRkOdXiB6BV7RRrDBN-11" value="" style="endArrow=none;html=1;rounded=0;strokeWidth=2;" edge="1" parent="1">
          <mxGeometry width="50" height="50" relative="1" as="geometry">
            <mxPoint x="240" y="292" as="sourcePoint" />
            <mxPoint x="240" y="282" as="targetPoint" />
          </mxGeometry>
        </mxCell>
        <mxCell id="GvZRkOdXiB6BV7RRrDBN-12" value="" style="endArrow=none;html=1;rounded=0;strokeWidth=2;" edge="1" parent="1">
          <mxGeometry width="50" height="50" relative="1" as="geometry">
            <mxPoint x="340" y="291" as="sourcePoint" />
            <mxPoint x="340" y="282" as="targetPoint" />
          </mxGeometry>
        </mxCell>
        <mxCell id="GvZRkOdXiB6BV7RRrDBN-13" value="" style="endArrow=none;html=1;rounded=0;strokeWidth=2;" edge="1" parent="1">
          <mxGeometry width="50" height="50" relative="1" as="geometry">
            <mxPoint x="440" y="291" as="sourcePoint" />
            <mxPoint x="440" y="282" as="targetPoint" />
          </mxGeometry>
        </mxCell>
        <mxCell id="GvZRkOdXiB6BV7RRrDBN-14" value="" style="endArrow=none;html=1;rounded=0;strokeWidth=2;" edge="1" parent="1">
          <mxGeometry width="50" height="50" relative="1" as="geometry">
            <mxPoint x="540" y="291" as="sourcePoint" />
            <mxPoint x="540" y="282" as="targetPoint" />
          </mxGeometry>
        </mxCell>
        <mxCell id="GvZRkOdXiB6BV7RRrDBN-15" value="" style="ellipse;whiteSpace=wrap;html=1;aspect=fixed;fillColor=#FF0000;" vertex="1" parent="1">
          <mxGeometry x="335" y="269" width="10" height="10" as="geometry" />
        </mxCell>
        <mxCell id="GvZRkOdXiB6BV7RRrDBN-16" value="" style="ellipse;whiteSpace=wrap;html=1;aspect=fixed;fillColor=#FF0000;" vertex="1" parent="1">
          <mxGeometry x="385" y="269" width="10" height="10" as="geometry" />
        </mxCell>
        <mxCell id="GvZRkOdXiB6BV7RRrDBN-17" value="" style="ellipse;whiteSpace=wrap;html=1;aspect=fixed;fillColor=#FF0000;" vertex="1" parent="1">
          <mxGeometry x="485" y="269" width="10" height="10" as="geometry" />
        </mxCell>
        <mxCell id="GvZRkOdXiB6BV7RRrDBN-18" value="" style="ellipse;whiteSpace=wrap;html=1;aspect=fixed;fillColor=#FF0000;" vertex="1" parent="1">
          <mxGeometry x="435" y="269" width="10" height="10" as="geometry" />
        </mxCell>
        <mxCell id="GvZRkOdXiB6BV7RRrDBN-19" value="" style="endArrow=none;html=1;rounded=0;strokeWidth=2;" edge="1" parent="1">
          <mxGeometry width="50" height="50" relative="1" as="geometry">
            <mxPoint x="640" y="291" as="sourcePoint" />
            <mxPoint x="640" y="282" as="targetPoint" />
          </mxGeometry>
        </mxCell>
        <mxCell id="GvZRkOdXiB6BV7RRrDBN-20" value="" style="endArrow=none;html=1;rounded=0;strokeWidth=2;" edge="1" parent="1">
          <mxGeometry width="50" height="50" relative="1" as="geometry">
            <mxPoint x="740" y="291" as="sourcePoint" />
            <mxPoint x="740" y="282" as="targetPoint" />
          </mxGeometry>
        </mxCell>
        <mxCell id="GvZRkOdXiB6BV7RRrDBN-21" value="&lt;font face=&quot;SFMono-Regular, Menlo, Monaco, Consolas, Liberation Mono, Courier New, monospace&quot;&gt;\(1\)&lt;/font&gt;" style="text;whiteSpace=wrap;html=1;align=center;verticalAlign=middle;fontColor=#000000;labelBackgroundColor=none;fontSize=20;" vertex="1" parent="1">
          <mxGeometry x="125" y="299" width="30" height="20" as="geometry" />
        </mxCell>
        <mxCell id="GvZRkOdXiB6BV7RRrDBN-22" value="&lt;font face=&quot;SFMono-Regular, Menlo, Monaco, Consolas, Liberation Mono, Courier New, monospace&quot;&gt;\(2\)&lt;/font&gt;" style="text;whiteSpace=wrap;html=1;align=center;verticalAlign=middle;fontColor=#000000;labelBackgroundColor=none;fontSize=20;" vertex="1" parent="1">
          <mxGeometry x="225" y="299" width="30" height="20" as="geometry" />
        </mxCell>
        <mxCell id="GvZRkOdXiB6BV7RRrDBN-23" value="&lt;font face=&quot;SFMono-Regular, Menlo, Monaco, Consolas, Liberation Mono, Courier New, monospace&quot;&gt;\(3\)&lt;/font&gt;" style="text;whiteSpace=wrap;html=1;align=center;verticalAlign=middle;fontColor=#000000;labelBackgroundColor=none;fontSize=20;" vertex="1" parent="1">
          <mxGeometry x="325" y="299" width="30" height="20" as="geometry" />
        </mxCell>
        <mxCell id="GvZRkOdXiB6BV7RRrDBN-24" value="&lt;font face=&quot;SFMono-Regular, Menlo, Monaco, Consolas, Liberation Mono, Courier New, monospace&quot;&gt;\(4\)&lt;/font&gt;" style="text;whiteSpace=wrap;html=1;align=center;verticalAlign=middle;fontColor=#000000;labelBackgroundColor=none;fontSize=20;" vertex="1" parent="1">
          <mxGeometry x="425" y="299" width="30" height="20" as="geometry" />
        </mxCell>
        <mxCell id="GvZRkOdXiB6BV7RRrDBN-25" value="&lt;font face=&quot;SFMono-Regular, Menlo, Monaco, Consolas, Liberation Mono, Courier New, monospace&quot;&gt;\(5\)&lt;/font&gt;" style="text;whiteSpace=wrap;html=1;align=center;verticalAlign=middle;fontColor=#000000;labelBackgroundColor=none;fontSize=20;" vertex="1" parent="1">
          <mxGeometry x="525" y="299" width="30" height="20" as="geometry" />
        </mxCell>
        <mxCell id="GvZRkOdXiB6BV7RRrDBN-26" value="&lt;font face=&quot;SFMono-Regular, Menlo, Monaco, Consolas, Liberation Mono, Courier New, monospace&quot;&gt;\(6\)&lt;/font&gt;" style="text;whiteSpace=wrap;html=1;align=center;verticalAlign=middle;fontColor=#000000;labelBackgroundColor=none;fontSize=20;" vertex="1" parent="1">
          <mxGeometry x="625" y="299" width="30" height="20" as="geometry" />
        </mxCell>
        <mxCell id="GvZRkOdXiB6BV7RRrDBN-27" value="&lt;font face=&quot;SFMono-Regular, Menlo, Monaco, Consolas, Liberation Mono, Courier New, monospace&quot;&gt;\(7\)&lt;/font&gt;" style="text;whiteSpace=wrap;html=1;align=center;verticalAlign=middle;fontColor=#000000;labelBackgroundColor=none;fontSize=20;" vertex="1" parent="1">
          <mxGeometry x="725" y="299" width="30" height="20" as="geometry" />
        </mxCell>
        <mxCell id="GvZRkOdXiB6BV7RRrDBN-28" value="" style="endArrow=none;dashed=1;html=1;rounded=0;dashPattern=1 1;strokeWidth=2;" edge="1" parent="1">
          <mxGeometry width="50" height="50" relative="1" as="geometry">
            <mxPoint x="50" y="291" as="sourcePoint" />
            <mxPoint x="50" y="281" as="targetPoint" />
          </mxGeometry>
        </mxCell>
        <mxCell id="GvZRkOdXiB6BV7RRrDBN-29" value="" style="endArrow=none;dashed=1;html=1;rounded=0;dashPattern=1 1;strokeWidth=2;" edge="1" parent="1">
          <mxGeometry width="50" height="50" relative="1" as="geometry">
            <mxPoint x="60" y="291" as="sourcePoint" />
            <mxPoint x="60" y="281" as="targetPoint" />
          </mxGeometry>
        </mxCell>
        <mxCell id="GvZRkOdXiB6BV7RRrDBN-30" value="" style="endArrow=none;dashed=1;html=1;rounded=0;dashPattern=1 1;strokeWidth=2;" edge="1" parent="1">
          <mxGeometry width="50" height="50" relative="1" as="geometry">
            <mxPoint x="70" y="291" as="sourcePoint" />
            <mxPoint x="70" y="281" as="targetPoint" />
          </mxGeometry>
        </mxCell>
        <mxCell id="GvZRkOdXiB6BV7RRrDBN-31" value="" style="endArrow=none;dashed=1;html=1;rounded=0;dashPattern=1 1;strokeWidth=2;" edge="1" parent="1">
          <mxGeometry width="50" height="50" relative="1" as="geometry">
            <mxPoint x="80" y="291" as="sourcePoint" />
            <mxPoint x="80" y="281" as="targetPoint" />
          </mxGeometry>
        </mxCell>
        <mxCell id="GvZRkOdXiB6BV7RRrDBN-32" value="" style="endArrow=none;dashed=1;html=1;rounded=0;dashPattern=1 1;strokeWidth=2;" edge="1" parent="1">
          <mxGeometry width="50" height="50" relative="1" as="geometry">
            <mxPoint x="90" y="291" as="sourcePoint" />
            <mxPoint x="90" y="281" as="targetPoint" />
          </mxGeometry>
        </mxCell>
        <mxCell id="GvZRkOdXiB6BV7RRrDBN-33" value="" style="endArrow=none;dashed=1;html=1;rounded=0;dashPattern=1 1;strokeWidth=2;" edge="1" parent="1">
          <mxGeometry width="50" height="50" relative="1" as="geometry">
            <mxPoint x="100" y="291" as="sourcePoint" />
            <mxPoint x="100" y="281" as="targetPoint" />
          </mxGeometry>
        </mxCell>
        <mxCell id="GvZRkOdXiB6BV7RRrDBN-34" value="" style="endArrow=none;dashed=1;html=1;rounded=0;dashPattern=1 1;strokeWidth=2;" edge="1" parent="1">
          <mxGeometry width="50" height="50" relative="1" as="geometry">
            <mxPoint x="110" y="291" as="sourcePoint" />
            <mxPoint x="110" y="281" as="targetPoint" />
          </mxGeometry>
        </mxCell>
        <mxCell id="GvZRkOdXiB6BV7RRrDBN-35" value="" style="endArrow=none;dashed=1;html=1;rounded=0;dashPattern=1 1;strokeWidth=2;" edge="1" parent="1">
          <mxGeometry width="50" height="50" relative="1" as="geometry">
            <mxPoint x="120" y="291" as="sourcePoint" />
            <mxPoint x="120" y="281" as="targetPoint" />
          </mxGeometry>
        </mxCell>
        <mxCell id="GvZRkOdXiB6BV7RRrDBN-36" value="" style="endArrow=none;dashed=1;html=1;rounded=0;dashPattern=1 1;strokeWidth=2;" edge="1" parent="1">
          <mxGeometry width="50" height="50" relative="1" as="geometry">
            <mxPoint x="130" y="291" as="sourcePoint" />
            <mxPoint x="130" y="281" as="targetPoint" />
          </mxGeometry>
        </mxCell>
        <mxCell id="GvZRkOdXiB6BV7RRrDBN-37" value="" style="endArrow=none;dashed=1;html=1;rounded=0;dashPattern=1 1;strokeWidth=2;" edge="1" parent="1">
          <mxGeometry width="50" height="50" relative="1" as="geometry">
            <mxPoint x="150" y="291" as="sourcePoint" />
            <mxPoint x="150" y="281" as="targetPoint" />
          </mxGeometry>
        </mxCell>
        <mxCell id="GvZRkOdXiB6BV7RRrDBN-38" value="" style="endArrow=none;dashed=1;html=1;rounded=0;dashPattern=1 1;strokeWidth=2;" edge="1" parent="1">
          <mxGeometry width="50" height="50" relative="1" as="geometry">
            <mxPoint x="160" y="291" as="sourcePoint" />
            <mxPoint x="160" y="281" as="targetPoint" />
          </mxGeometry>
        </mxCell>
        <mxCell id="GvZRkOdXiB6BV7RRrDBN-39" value="" style="endArrow=none;dashed=1;html=1;rounded=0;dashPattern=1 1;strokeWidth=2;" edge="1" parent="1">
          <mxGeometry width="50" height="50" relative="1" as="geometry">
            <mxPoint x="170" y="291" as="sourcePoint" />
            <mxPoint x="170" y="281" as="targetPoint" />
          </mxGeometry>
        </mxCell>
        <mxCell id="GvZRkOdXiB6BV7RRrDBN-40" value="" style="endArrow=none;dashed=1;html=1;rounded=0;dashPattern=1 1;strokeWidth=2;" edge="1" parent="1">
          <mxGeometry width="50" height="50" relative="1" as="geometry">
            <mxPoint x="180" y="291" as="sourcePoint" />
            <mxPoint x="180" y="281" as="targetPoint" />
          </mxGeometry>
        </mxCell>
        <mxCell id="GvZRkOdXiB6BV7RRrDBN-41" value="" style="endArrow=none;dashed=1;html=1;rounded=0;dashPattern=1 1;strokeWidth=2;" edge="1" parent="1">
          <mxGeometry width="50" height="50" relative="1" as="geometry">
            <mxPoint x="190" y="291" as="sourcePoint" />
            <mxPoint x="190" y="281" as="targetPoint" />
          </mxGeometry>
        </mxCell>
        <mxCell id="GvZRkOdXiB6BV7RRrDBN-42" value="" style="endArrow=none;dashed=1;html=1;rounded=0;dashPattern=1 1;strokeWidth=2;" edge="1" parent="1">
          <mxGeometry width="50" height="50" relative="1" as="geometry">
            <mxPoint x="200" y="291" as="sourcePoint" />
            <mxPoint x="200" y="281" as="targetPoint" />
          </mxGeometry>
        </mxCell>
        <mxCell id="GvZRkOdXiB6BV7RRrDBN-43" value="" style="endArrow=none;dashed=1;html=1;rounded=0;dashPattern=1 1;strokeWidth=2;" edge="1" parent="1">
          <mxGeometry width="50" height="50" relative="1" as="geometry">
            <mxPoint x="210" y="291" as="sourcePoint" />
            <mxPoint x="210" y="281" as="targetPoint" />
          </mxGeometry>
        </mxCell>
        <mxCell id="GvZRkOdXiB6BV7RRrDBN-44" value="" style="endArrow=none;dashed=1;html=1;rounded=0;dashPattern=1 1;strokeWidth=2;" edge="1" parent="1">
          <mxGeometry width="50" height="50" relative="1" as="geometry">
            <mxPoint x="220" y="291" as="sourcePoint" />
            <mxPoint x="220" y="281" as="targetPoint" />
          </mxGeometry>
        </mxCell>
        <mxCell id="GvZRkOdXiB6BV7RRrDBN-45" value="" style="endArrow=none;dashed=1;html=1;rounded=0;dashPattern=1 1;strokeWidth=2;" edge="1" parent="1">
          <mxGeometry width="50" height="50" relative="1" as="geometry">
            <mxPoint x="230" y="291" as="sourcePoint" />
            <mxPoint x="230" y="281" as="targetPoint" />
          </mxGeometry>
        </mxCell>
        <mxCell id="GvZRkOdXiB6BV7RRrDBN-46" value="" style="endArrow=none;dashed=1;html=1;rounded=0;dashPattern=1 1;strokeWidth=2;" edge="1" parent="1">
          <mxGeometry width="50" height="50" relative="1" as="geometry">
            <mxPoint x="250" y="291" as="sourcePoint" />
            <mxPoint x="250" y="281" as="targetPoint" />
          </mxGeometry>
        </mxCell>
        <mxCell id="GvZRkOdXiB6BV7RRrDBN-47" value="" style="endArrow=none;dashed=1;html=1;rounded=0;dashPattern=1 1;strokeWidth=2;" edge="1" parent="1">
          <mxGeometry width="50" height="50" relative="1" as="geometry">
            <mxPoint x="260" y="291" as="sourcePoint" />
            <mxPoint x="260" y="281" as="targetPoint" />
          </mxGeometry>
        </mxCell>
        <mxCell id="GvZRkOdXiB6BV7RRrDBN-48" value="" style="endArrow=none;dashed=1;html=1;rounded=0;dashPattern=1 1;strokeWidth=2;" edge="1" parent="1">
          <mxGeometry width="50" height="50" relative="1" as="geometry">
            <mxPoint x="270" y="291" as="sourcePoint" />
            <mxPoint x="270" y="281" as="targetPoint" />
          </mxGeometry>
        </mxCell>
        <mxCell id="GvZRkOdXiB6BV7RRrDBN-49" value="" style="endArrow=none;dashed=1;html=1;rounded=0;dashPattern=1 1;strokeWidth=2;" edge="1" parent="1">
          <mxGeometry width="50" height="50" relative="1" as="geometry">
            <mxPoint x="280" y="291" as="sourcePoint" />
            <mxPoint x="280" y="281" as="targetPoint" />
          </mxGeometry>
        </mxCell>
        <mxCell id="GvZRkOdXiB6BV7RRrDBN-50" value="" style="endArrow=none;dashed=1;html=1;rounded=0;dashPattern=1 1;strokeWidth=2;" edge="1" parent="1">
          <mxGeometry width="50" height="50" relative="1" as="geometry">
            <mxPoint x="290" y="291" as="sourcePoint" />
            <mxPoint x="290" y="281" as="targetPoint" />
          </mxGeometry>
        </mxCell>
        <mxCell id="GvZRkOdXiB6BV7RRrDBN-51" value="" style="endArrow=none;dashed=1;html=1;rounded=0;dashPattern=1 1;strokeWidth=2;" edge="1" parent="1">
          <mxGeometry width="50" height="50" relative="1" as="geometry">
            <mxPoint x="300" y="291" as="sourcePoint" />
            <mxPoint x="300" y="281" as="targetPoint" />
          </mxGeometry>
        </mxCell>
        <mxCell id="GvZRkOdXiB6BV7RRrDBN-52" value="" style="endArrow=none;dashed=1;html=1;rounded=0;dashPattern=1 1;strokeWidth=2;" edge="1" parent="1">
          <mxGeometry width="50" height="50" relative="1" as="geometry">
            <mxPoint x="310" y="291" as="sourcePoint" />
            <mxPoint x="310" y="281" as="targetPoint" />
          </mxGeometry>
        </mxCell>
        <mxCell id="GvZRkOdXiB6BV7RRrDBN-53" value="" style="endArrow=none;dashed=1;html=1;rounded=0;dashPattern=1 1;strokeWidth=2;" edge="1" parent="1">
          <mxGeometry width="50" height="50" relative="1" as="geometry">
            <mxPoint x="320" y="291" as="sourcePoint" />
            <mxPoint x="320" y="281" as="targetPoint" />
          </mxGeometry>
        </mxCell>
        <mxCell id="GvZRkOdXiB6BV7RRrDBN-54" value="" style="endArrow=none;dashed=1;html=1;rounded=0;dashPattern=1 1;strokeWidth=2;" edge="1" parent="1">
          <mxGeometry width="50" height="50" relative="1" as="geometry">
            <mxPoint x="330" y="291" as="sourcePoint" />
            <mxPoint x="330" y="281" as="targetPoint" />
          </mxGeometry>
        </mxCell>
        <mxCell id="GvZRkOdXiB6BV7RRrDBN-55" value="" style="endArrow=none;dashed=1;html=1;rounded=0;dashPattern=1 1;strokeWidth=2;" edge="1" parent="1">
          <mxGeometry width="50" height="50" relative="1" as="geometry">
            <mxPoint x="350" y="291" as="sourcePoint" />
            <mxPoint x="350" y="281" as="targetPoint" />
          </mxGeometry>
        </mxCell>
        <mxCell id="GvZRkOdXiB6BV7RRrDBN-56" value="" style="endArrow=none;dashed=1;html=1;rounded=0;dashPattern=1 1;strokeWidth=2;" edge="1" parent="1">
          <mxGeometry width="50" height="50" relative="1" as="geometry">
            <mxPoint x="360" y="291" as="sourcePoint" />
            <mxPoint x="360" y="281" as="targetPoint" />
          </mxGeometry>
        </mxCell>
        <mxCell id="GvZRkOdXiB6BV7RRrDBN-57" value="" style="endArrow=none;dashed=1;html=1;rounded=0;dashPattern=1 1;strokeWidth=2;" edge="1" parent="1">
          <mxGeometry width="50" height="50" relative="1" as="geometry">
            <mxPoint x="370" y="291" as="sourcePoint" />
            <mxPoint x="370" y="281" as="targetPoint" />
          </mxGeometry>
        </mxCell>
        <mxCell id="GvZRkOdXiB6BV7RRrDBN-58" value="" style="endArrow=none;dashed=1;html=1;rounded=0;dashPattern=1 1;strokeWidth=2;" edge="1" parent="1">
          <mxGeometry width="50" height="50" relative="1" as="geometry">
            <mxPoint x="380" y="291" as="sourcePoint" />
            <mxPoint x="380" y="281" as="targetPoint" />
          </mxGeometry>
        </mxCell>
        <mxCell id="GvZRkOdXiB6BV7RRrDBN-59" value="" style="endArrow=none;dashed=1;html=1;rounded=0;dashPattern=1 1;strokeWidth=2;" edge="1" parent="1">
          <mxGeometry width="50" height="50" relative="1" as="geometry">
            <mxPoint x="390" y="291" as="sourcePoint" />
            <mxPoint x="390" y="281" as="targetPoint" />
          </mxGeometry>
        </mxCell>
        <mxCell id="GvZRkOdXiB6BV7RRrDBN-60" value="" style="endArrow=none;dashed=1;html=1;rounded=0;dashPattern=1 1;strokeWidth=2;" edge="1" parent="1">
          <mxGeometry width="50" height="50" relative="1" as="geometry">
            <mxPoint x="400" y="291" as="sourcePoint" />
            <mxPoint x="400" y="281" as="targetPoint" />
          </mxGeometry>
        </mxCell>
        <mxCell id="GvZRkOdXiB6BV7RRrDBN-61" value="" style="endArrow=none;dashed=1;html=1;rounded=0;dashPattern=1 1;strokeWidth=2;" edge="1" parent="1">
          <mxGeometry width="50" height="50" relative="1" as="geometry">
            <mxPoint x="410" y="291" as="sourcePoint" />
            <mxPoint x="410" y="281" as="targetPoint" />
          </mxGeometry>
        </mxCell>
        <mxCell id="GvZRkOdXiB6BV7RRrDBN-62" value="" style="endArrow=none;dashed=1;html=1;rounded=0;dashPattern=1 1;strokeWidth=2;" edge="1" parent="1">
          <mxGeometry width="50" height="50" relative="1" as="geometry">
            <mxPoint x="420" y="291" as="sourcePoint" />
            <mxPoint x="420" y="281" as="targetPoint" />
          </mxGeometry>
        </mxCell>
        <mxCell id="GvZRkOdXiB6BV7RRrDBN-63" value="" style="endArrow=none;dashed=1;html=1;rounded=0;dashPattern=1 1;strokeWidth=2;" edge="1" parent="1">
          <mxGeometry width="50" height="50" relative="1" as="geometry">
            <mxPoint x="430" y="291" as="sourcePoint" />
            <mxPoint x="430" y="281" as="targetPoint" />
          </mxGeometry>
        </mxCell>
        <mxCell id="GvZRkOdXiB6BV7RRrDBN-64" value="" style="endArrow=none;dashed=1;html=1;rounded=0;dashPattern=1 1;strokeWidth=2;" edge="1" parent="1">
          <mxGeometry width="50" height="50" relative="1" as="geometry">
            <mxPoint x="450" y="291" as="sourcePoint" />
            <mxPoint x="450" y="281" as="targetPoint" />
          </mxGeometry>
        </mxCell>
        <mxCell id="GvZRkOdXiB6BV7RRrDBN-65" value="" style="endArrow=none;dashed=1;html=1;rounded=0;dashPattern=1 1;strokeWidth=2;" edge="1" parent="1">
          <mxGeometry width="50" height="50" relative="1" as="geometry">
            <mxPoint x="460" y="291" as="sourcePoint" />
            <mxPoint x="460" y="281" as="targetPoint" />
          </mxGeometry>
        </mxCell>
        <mxCell id="GvZRkOdXiB6BV7RRrDBN-66" value="" style="endArrow=none;dashed=1;html=1;rounded=0;dashPattern=1 1;strokeWidth=2;" edge="1" parent="1">
          <mxGeometry width="50" height="50" relative="1" as="geometry">
            <mxPoint x="470" y="291" as="sourcePoint" />
            <mxPoint x="470" y="281" as="targetPoint" />
          </mxGeometry>
        </mxCell>
        <mxCell id="GvZRkOdXiB6BV7RRrDBN-67" value="" style="endArrow=none;dashed=1;html=1;rounded=0;dashPattern=1 1;strokeWidth=2;" edge="1" parent="1">
          <mxGeometry width="50" height="50" relative="1" as="geometry">
            <mxPoint x="480" y="291" as="sourcePoint" />
            <mxPoint x="480" y="281" as="targetPoint" />
          </mxGeometry>
        </mxCell>
        <mxCell id="GvZRkOdXiB6BV7RRrDBN-68" value="" style="endArrow=none;dashed=1;html=1;rounded=0;dashPattern=1 1;strokeWidth=2;" edge="1" parent="1">
          <mxGeometry width="50" height="50" relative="1" as="geometry">
            <mxPoint x="490" y="291" as="sourcePoint" />
            <mxPoint x="490" y="281" as="targetPoint" />
          </mxGeometry>
        </mxCell>
        <mxCell id="GvZRkOdXiB6BV7RRrDBN-69" value="" style="endArrow=none;dashed=1;html=1;rounded=0;dashPattern=1 1;strokeWidth=2;" edge="1" parent="1">
          <mxGeometry width="50" height="50" relative="1" as="geometry">
            <mxPoint x="500" y="291" as="sourcePoint" />
            <mxPoint x="500" y="281" as="targetPoint" />
          </mxGeometry>
        </mxCell>
        <mxCell id="GvZRkOdXiB6BV7RRrDBN-70" value="" style="endArrow=none;dashed=1;html=1;rounded=0;dashPattern=1 1;strokeWidth=2;" edge="1" parent="1">
          <mxGeometry width="50" height="50" relative="1" as="geometry">
            <mxPoint x="510" y="291" as="sourcePoint" />
            <mxPoint x="510" y="281" as="targetPoint" />
          </mxGeometry>
        </mxCell>
        <mxCell id="GvZRkOdXiB6BV7RRrDBN-71" value="" style="endArrow=none;dashed=1;html=1;rounded=0;dashPattern=1 1;strokeWidth=2;" edge="1" parent="1">
          <mxGeometry width="50" height="50" relative="1" as="geometry">
            <mxPoint x="520" y="291" as="sourcePoint" />
            <mxPoint x="520" y="281" as="targetPoint" />
          </mxGeometry>
        </mxCell>
        <mxCell id="GvZRkOdXiB6BV7RRrDBN-72" value="" style="endArrow=none;dashed=1;html=1;rounded=0;dashPattern=1 1;strokeWidth=2;" edge="1" parent="1">
          <mxGeometry width="50" height="50" relative="1" as="geometry">
            <mxPoint x="530" y="291" as="sourcePoint" />
            <mxPoint x="530" y="281" as="targetPoint" />
          </mxGeometry>
        </mxCell>
        <mxCell id="GvZRkOdXiB6BV7RRrDBN-73" value="" style="endArrow=none;dashed=1;html=1;rounded=0;dashPattern=1 1;strokeWidth=2;" edge="1" parent="1">
          <mxGeometry width="50" height="50" relative="1" as="geometry">
            <mxPoint x="650" y="291" as="sourcePoint" />
            <mxPoint x="650" y="281" as="targetPoint" />
          </mxGeometry>
        </mxCell>
        <mxCell id="GvZRkOdXiB6BV7RRrDBN-74" value="" style="endArrow=none;dashed=1;html=1;rounded=0;dashPattern=1 1;strokeWidth=2;" edge="1" parent="1">
          <mxGeometry width="50" height="50" relative="1" as="geometry">
            <mxPoint x="660" y="291" as="sourcePoint" />
            <mxPoint x="660" y="281" as="targetPoint" />
          </mxGeometry>
        </mxCell>
        <mxCell id="GvZRkOdXiB6BV7RRrDBN-75" value="" style="endArrow=none;dashed=1;html=1;rounded=0;dashPattern=1 1;strokeWidth=2;" edge="1" parent="1">
          <mxGeometry width="50" height="50" relative="1" as="geometry">
            <mxPoint x="670" y="291" as="sourcePoint" />
            <mxPoint x="670" y="281" as="targetPoint" />
          </mxGeometry>
        </mxCell>
        <mxCell id="GvZRkOdXiB6BV7RRrDBN-76" value="" style="endArrow=none;dashed=1;html=1;rounded=0;dashPattern=1 1;strokeWidth=2;" edge="1" parent="1">
          <mxGeometry width="50" height="50" relative="1" as="geometry">
            <mxPoint x="680" y="291" as="sourcePoint" />
            <mxPoint x="680" y="281" as="targetPoint" />
          </mxGeometry>
        </mxCell>
        <mxCell id="GvZRkOdXiB6BV7RRrDBN-77" value="" style="endArrow=none;dashed=1;html=1;rounded=0;dashPattern=1 1;strokeWidth=2;" edge="1" parent="1">
          <mxGeometry width="50" height="50" relative="1" as="geometry">
            <mxPoint x="690" y="291" as="sourcePoint" />
            <mxPoint x="690" y="281" as="targetPoint" />
          </mxGeometry>
        </mxCell>
        <mxCell id="GvZRkOdXiB6BV7RRrDBN-78" value="" style="endArrow=none;dashed=1;html=1;rounded=0;dashPattern=1 1;strokeWidth=2;" edge="1" parent="1">
          <mxGeometry width="50" height="50" relative="1" as="geometry">
            <mxPoint x="700" y="291" as="sourcePoint" />
            <mxPoint x="700" y="281" as="targetPoint" />
          </mxGeometry>
        </mxCell>
        <mxCell id="GvZRkOdXiB6BV7RRrDBN-79" value="" style="endArrow=none;dashed=1;html=1;rounded=0;dashPattern=1 1;strokeWidth=2;" edge="1" parent="1">
          <mxGeometry width="50" height="50" relative="1" as="geometry">
            <mxPoint x="710" y="291" as="sourcePoint" />
            <mxPoint x="710" y="281" as="targetPoint" />
          </mxGeometry>
        </mxCell>
        <mxCell id="GvZRkOdXiB6BV7RRrDBN-80" value="" style="endArrow=none;dashed=1;html=1;rounded=0;dashPattern=1 1;strokeWidth=2;" edge="1" parent="1">
          <mxGeometry width="50" height="50" relative="1" as="geometry">
            <mxPoint x="720" y="291" as="sourcePoint" />
            <mxPoint x="720" y="281" as="targetPoint" />
          </mxGeometry>
        </mxCell>
        <mxCell id="GvZRkOdXiB6BV7RRrDBN-81" value="" style="endArrow=none;dashed=1;html=1;rounded=0;dashPattern=1 1;strokeWidth=2;" edge="1" parent="1">
          <mxGeometry width="50" height="50" relative="1" as="geometry">
            <mxPoint x="730" y="291" as="sourcePoint" />
            <mxPoint x="730" y="281" as="targetPoint" />
          </mxGeometry>
        </mxCell>
        <mxCell id="GvZRkOdXiB6BV7RRrDBN-82" value="" style="endArrow=none;dashed=1;html=1;rounded=0;dashPattern=1 1;strokeWidth=2;" edge="1" parent="1">
          <mxGeometry width="50" height="50" relative="1" as="geometry">
            <mxPoint x="550" y="291" as="sourcePoint" />
            <mxPoint x="550" y="281" as="targetPoint" />
          </mxGeometry>
        </mxCell>
        <mxCell id="GvZRkOdXiB6BV7RRrDBN-83" value="" style="endArrow=none;dashed=1;html=1;rounded=0;dashPattern=1 1;strokeWidth=2;" edge="1" parent="1">
          <mxGeometry width="50" height="50" relative="1" as="geometry">
            <mxPoint x="560" y="291" as="sourcePoint" />
            <mxPoint x="560" y="281" as="targetPoint" />
          </mxGeometry>
        </mxCell>
        <mxCell id="GvZRkOdXiB6BV7RRrDBN-84" value="" style="endArrow=none;dashed=1;html=1;rounded=0;dashPattern=1 1;strokeWidth=2;" edge="1" parent="1">
          <mxGeometry width="50" height="50" relative="1" as="geometry">
            <mxPoint x="570" y="291" as="sourcePoint" />
            <mxPoint x="570" y="281" as="targetPoint" />
          </mxGeometry>
        </mxCell>
        <mxCell id="GvZRkOdXiB6BV7RRrDBN-85" value="" style="endArrow=none;dashed=1;html=1;rounded=0;dashPattern=1 1;strokeWidth=2;" edge="1" parent="1">
          <mxGeometry width="50" height="50" relative="1" as="geometry">
            <mxPoint x="580" y="291" as="sourcePoint" />
            <mxPoint x="580" y="281" as="targetPoint" />
          </mxGeometry>
        </mxCell>
        <mxCell id="GvZRkOdXiB6BV7RRrDBN-86" value="" style="endArrow=none;dashed=1;html=1;rounded=0;dashPattern=1 1;strokeWidth=2;" edge="1" parent="1">
          <mxGeometry width="50" height="50" relative="1" as="geometry">
            <mxPoint x="590" y="291" as="sourcePoint" />
            <mxPoint x="590" y="281" as="targetPoint" />
          </mxGeometry>
        </mxCell>
        <mxCell id="GvZRkOdXiB6BV7RRrDBN-87" value="" style="endArrow=none;dashed=1;html=1;rounded=0;dashPattern=1 1;strokeWidth=2;" edge="1" parent="1">
          <mxGeometry width="50" height="50" relative="1" as="geometry">
            <mxPoint x="600" y="291" as="sourcePoint" />
            <mxPoint x="600" y="281" as="targetPoint" />
          </mxGeometry>
        </mxCell>
        <mxCell id="GvZRkOdXiB6BV7RRrDBN-88" value="" style="endArrow=none;dashed=1;html=1;rounded=0;dashPattern=1 1;strokeWidth=2;" edge="1" parent="1">
          <mxGeometry width="50" height="50" relative="1" as="geometry">
            <mxPoint x="610" y="291" as="sourcePoint" />
            <mxPoint x="610" y="281" as="targetPoint" />
          </mxGeometry>
        </mxCell>
        <mxCell id="GvZRkOdXiB6BV7RRrDBN-89" value="" style="endArrow=none;dashed=1;html=1;rounded=0;dashPattern=1 1;strokeWidth=2;" edge="1" parent="1">
          <mxGeometry width="50" height="50" relative="1" as="geometry">
            <mxPoint x="620" y="291" as="sourcePoint" />
            <mxPoint x="620" y="281" as="targetPoint" />
          </mxGeometry>
        </mxCell>
        <mxCell id="GvZRkOdXiB6BV7RRrDBN-90" value="" style="endArrow=none;dashed=1;html=1;rounded=0;dashPattern=1 1;strokeWidth=2;" edge="1" parent="1">
          <mxGeometry width="50" height="50" relative="1" as="geometry">
            <mxPoint x="630" y="291" as="sourcePoint" />
            <mxPoint x="630" y="281" as="targetPoint" />
          </mxGeometry>
        </mxCell>
        <mxCell id="GvZRkOdXiB6BV7RRrDBN-91" value="" style="ellipse;whiteSpace=wrap;html=1;aspect=fixed;fillColor=#FF0000;" vertex="1" parent="1">
          <mxGeometry x="360" y="269" width="10" height="10" as="geometry" />
        </mxCell>
        <mxCell id="GvZRkOdXiB6BV7RRrDBN-92" value="" style="ellipse;whiteSpace=wrap;html=1;aspect=fixed;fillColor=#FF0000;" vertex="1" parent="1">
          <mxGeometry x="385" y="259" width="10" height="10" as="geometry" />
        </mxCell>
        <mxCell id="GvZRkOdXiB6BV7RRrDBN-93" value="" style="ellipse;whiteSpace=wrap;html=1;aspect=fixed;fillColor=#FF0000;" vertex="1" parent="1">
          <mxGeometry x="360" y="259" width="10" height="10" as="geometry" />
        </mxCell>
        <mxCell id="GvZRkOdXiB6BV7RRrDBN-94" value="" style="ellipse;whiteSpace=wrap;html=1;aspect=fixed;fillColor=#FF0000;" vertex="1" parent="1">
          <mxGeometry x="435" y="259" width="10" height="10" as="geometry" />
        </mxCell>
        <mxCell id="GvZRkOdXiB6BV7RRrDBN-95" value="" style="ellipse;whiteSpace=wrap;html=1;aspect=fixed;fillColor=#FF0000;" vertex="1" parent="1">
          <mxGeometry x="385" y="249" width="10" height="10" as="geometry" />
        </mxCell>
        <mxCell id="GvZRkOdXiB6BV7RRrDBN-96" value="" style="ellipse;whiteSpace=wrap;html=1;aspect=fixed;fillColor=#FF0000;" vertex="1" parent="1">
          <mxGeometry x="385" y="239" width="10" height="10" as="geometry" />
        </mxCell>
        <mxCell id="GvZRkOdXiB6BV7RRrDBN-97" value="" style="shape=flexArrow;endArrow=classic;html=1;rounded=0;fillColor=#0000FF;" edge="1" parent="1">
          <mxGeometry width="50" height="50" relative="1" as="geometry">
            <mxPoint x="400" y="160" as="sourcePoint" />
            <mxPoint x="400" y="90" as="targetPoint" />
          </mxGeometry>
        </mxCell>
        <mxCell id="GvZRkOdXiB6BV7RRrDBN-98" value="" style="shape=flexArrow;endArrow=classic;html=1;rounded=0;fillColor=#FF0000;" edge="1" parent="1">
          <mxGeometry width="50" height="50" relative="1" as="geometry">
            <mxPoint x="400" y="360" as="sourcePoint" />
            <mxPoint x="400" y="290" as="targetPoint" />
          </mxGeometry>
        </mxCell>
      </root>
    </mxGraphModel>
  </diagram>
</mxfile>
